<?xml version="1.0" encoding="UTF-8"?>
<svg id="Iconos" xmlns="http://www.w3.org/2000/svg" viewBox="0 0 300 300">
  <defs>
    <style>
      .cls-1 {
        fill: #fff;
      }
    </style>
  </defs>
  <g id="icono-blanco">
    <path class="cls-1" d="M233.52,31.28H66.48c-19.77,0-35.79,15.95-35.79,35.62v166.21c0,19.67,16.02,35.61,35.79,35.61h167.04c19.76,0,35.79-15.94,35.79-35.61V66.9c0-19.67-16.03-35.62-35.79-35.62ZM250.22,72.95c-2.47,8.4-10.46,13.69-18.89,13.1l-25.47,76c6.65,4.27,9.99,12.53,7.65,20.47-2.85,9.69-13.04,15.24-22.78,12.41-9.65-2.81-15.22-12.81-12.53-22.42l-61.51-36.58c-3.67,3.43-8.68,5.28-13.85,4.92l-25.47,76c6.65,4.27,9.99,12.53,7.66,20.47-2.85,9.69-13.05,15.24-22.79,12.41-9.73-2.83-15.31-12.98-12.47-22.67,2.47-8.39,10.47-13.68,18.89-13.1l25.47-76c-6.64-4.27-9.98-12.53-7.64-20.47,2.84-9.69,13.04-15.24,22.78-12.41,9.73,2.83,15.31,12.98,12.47,22.67-.05.15-.1.3-.15.45l61.19,36.39c3.71-3.75,8.95-5.8,14.37-5.43l25.47-76c-6.64-4.27-9.98-12.53-7.65-20.47,2.85-9.69,13.05-15.24,22.78-12.41,9.74,2.83,15.32,12.98,12.47,22.67Z"/>
  </g>
</svg>