<?xml version="1.0" encoding="UTF-8"?>
<svg id="imagotipo_-_h" data-name="imagotipo - h" xmlns="http://www.w3.org/2000/svg" xmlns:xlink="http://www.w3.org/1999/xlink" viewBox="0 0 775.32 218.44">
  <defs>
    <style>
      .cls-1 {
        fill: #fff;
      }

      .cls-2 {
        fill: url(#Degradado_sin_nombre_972);
      }
    </style>
    <linearGradient id="Degradado_sin_nombre_972" data-name="Degradado sin nombre 972" x1="54.52" y1="15.72" x2="160.07" y2="198.54" gradientUnits="userSpaceOnUse">
      <stop offset="0" stop-color="#8400c8"/>
      <stop offset=".5" stop-color="#2010c0"/>
      <stop offset="1" stop-color="#0078f0"/>
      <stop offset="1" stop-color="#0271ed"/>
    </linearGradient>
  </defs>
  <g id="imagotipo-h-txt-b-icon-c">
    <path id="Icono" class="cls-2" d="M166.3,23.25H48.28c-13.97,0-25.29,11.27-25.29,25.16v117.43c0,13.9,11.32,25.16,25.29,25.16h118.01c13.97,0,25.29-11.27,25.29-25.16V48.41c0-13.9-11.32-25.16-25.29-25.16ZM178.1,52.69c-1.74,5.93-7.4,9.67-13.35,9.25l-18,53.69c4.7,3.02,7.06,8.85,5.41,14.47-2.01,6.84-9.22,10.77-16.1,8.77-6.82-1.99-10.75-9.05-8.86-15.84l-43.45-25.84c-2.59,2.42-6.13,3.73-9.79,3.48l-18,53.69c4.7,3.02,7.06,8.85,5.41,14.47-2.01,6.84-9.22,10.77-16.1,8.77-6.88-2-10.82-9.17-8.81-16.02,1.74-5.93,7.39-9.67,13.34-9.25l18-53.7c-4.7-3.02-7.05-8.85-5.4-14.46,2.01-6.84,9.22-10.77,16.1-8.77,6.88,2,10.82,9.17,8.81,16.02-.03.11-.07.21-.1.32l43.23,25.71c2.62-2.65,6.32-4.1,10.15-3.84l18-53.7c-4.7-3.02-7.05-8.85-5.4-14.46,2.01-6.84,9.22-10.77,16.1-8.77,6.88,2,10.82,9.17,8.81,16.02Z"/>
    <path id="constelacion" class="cls-1" d="M178.11,52.69c-1.75,5.93-7.4,9.67-13.35,9.26l-18,53.7c4.7,3.02,7.06,8.85,5.41,14.46-2.01,6.85-9.21,10.77-16.09,8.77-6.82-1.99-10.75-9.05-8.85-15.84l-43.46-25.84c-2.59,2.42-6.13,3.73-9.79,3.48l-18,53.7c4.7,3.02,7.06,8.85,5.41,14.46-2.01,6.85-9.22,10.77-16.09,8.77-6.88-2-10.82-9.17-8.81-16.02,1.75-5.93,7.39-9.67,13.34-9.26l18-53.7c-4.7-3.02-7.06-8.85-5.4-14.46,2.01-6.85,9.21-10.77,16.09-8.77,6.87,2,10.82,9.17,8.81,16.02-.04.11-.07.21-.11.32l43.23,25.71c2.62-2.65,6.32-4.1,10.15-3.84l18-53.7c-4.69-3.02-7.05-8.85-5.4-14.46,2.01-6.85,9.22-10.77,16.1-8.77,6.87,2,10.82,9.17,8.81,16.02Z"/>
    <g id="Texto">
      <path class="cls-1" d="M299.68,52.18c5.28,0,10.09.47,14.44,1.4,4.35.93,8.07,2.46,11.18,4.58,3.11,2.12,5.51,4.95,7.22,8.46,1.71,3.52,2.56,7.87,2.56,13.04,0,5.59-1.27,10.25-3.8,13.97-2.54,3.73-6.29,6.78-11.26,9.16,6.83,1.97,11.93,5.41,15.3,10.33,3.36,4.92,5.05,10.85,5.05,17.78,0,5.59-1.09,10.43-3.26,14.52-2.17,4.09-5.1,7.43-8.77,10.02-3.68,2.59-7.87,4.5-12.58,5.74-4.71,1.24-9.55,1.86-14.52,1.86h-53.73V52.18h52.18ZM296.58,97.05c4.35,0,7.92-1.03,10.71-3.1s4.19-5.44,4.19-10.09c0-2.59-.47-4.71-1.4-6.37-.93-1.66-2.17-2.95-3.73-3.88-1.55-.93-3.34-1.58-5.36-1.94-2.02-.36-4.11-.54-6.29-.54h-22.83v25.93h24.69ZM297.97,144.1c2.38,0,4.66-.23,6.83-.7,2.17-.47,4.09-1.24,5.75-2.33,1.65-1.09,2.98-2.56,3.96-4.42.98-1.86,1.47-4.25,1.47-7.14,0-5.69-1.61-9.76-4.81-12.19-3.21-2.43-7.45-3.65-12.73-3.65h-26.55v30.44h26.09Z"/>
      <path class="cls-1" d="M355.12,63.2h0c0-6.09,4.94-11.02,11.02-11.02h0c6.09,0,11.02,4.94,11.02,11.02h0c0,6.09-4.94,11.02-11.02,11.02h0c-6.09,0-11.02-4.94-11.02-11.02ZM377.17,82.77v80.28h-22.05v-80.28h22.05Z"/>
      <path class="cls-1" d="M446.89,52.18c11.18,0,19.64,2.87,25.39,8.62s8.62,13.8,8.62,24.15-2.87,18.43-8.62,24.22c-5.74,5.8-14.21,8.64-25.39,8.54h-33.85v45.34h-14.75V52.18h48.6ZM441.92,105.28c8.38.1,14.52-1.61,18.4-5.13,3.88-3.52,5.82-8.59,5.82-15.22s-1.94-11.67-5.82-15.14c-3.88-3.47-10.02-5.2-18.4-5.2h-28.88v40.69h28.88Z"/>
      <path class="cls-1" d="M528.26,173.76c-1.55,3.93-3.08,7.24-4.58,9.94-1.5,2.69-3.16,4.89-4.97,6.6-1.81,1.71-3.83,2.95-6.06,3.73s-4.79,1.16-7.69,1.16c-1.55,0-3.11-.1-4.66-.31-1.55-.21-3.06-.57-4.5-1.09v-12.11c1.14.52,2.46.96,3.96,1.32,1.5.36,2.77.54,3.8.54,2.69,0,4.94-.65,6.76-1.94,1.81-1.29,3.18-3.13,4.11-5.51l5.43-13.51-31.83-79.82h14.91l23.45,65.69h.31l22.52-65.69h13.98l-34.94,91Z"/>
      <path class="cls-1" d="M568.01,82.77h16.93l19.25,28.11,20.03-28.11h15.84l-27.64,36.96,31.05,43.32h-16.92l-22.36-33.23-22.36,33.23h-16l30.13-42.24-27.95-38.04Z"/>
      <path class="cls-1" d="M655.58,67.63h0c0-3.64,2.95-6.6,6.6-6.6h0c3.64,0,6.6,2.95,6.6,6.6h0c0,3.64-2.95,6.6-6.6,6.6h0c-3.64,0-6.6-2.95-6.6-6.6ZM668.78,82.77v80.28h-13.2v-80.28h13.2Z"/>
      <path class="cls-1" d="M699.37,145.11c1.24,2.02,2.87,3.62,4.89,4.81,2.02,1.19,4.29,2.05,6.83,2.56,2.54.52,5.15.78,7.84.78,2.07,0,4.24-.16,6.52-.47,2.28-.31,4.37-.88,6.29-1.71,1.91-.83,3.49-2.04,4.74-3.65s1.86-3.65,1.86-6.13c0-3.42-1.3-6-3.88-7.76-2.59-1.76-5.82-3.18-9.71-4.27-3.88-1.09-8.1-2.07-12.66-2.95s-8.77-2.12-12.65-3.73-7.12-3.86-9.71-6.76c-2.59-2.9-3.88-6.93-3.88-12.11,0-4.04.9-7.5,2.72-10.4,1.81-2.9,4.14-5.25,6.99-7.07,2.84-1.81,6.05-3.16,9.63-4.04,3.57-.88,7.12-1.32,10.64-1.32,4.56,0,8.75.39,12.58,1.16,3.83.78,7.22,2.12,10.17,4.04,2.95,1.92,5.3,4.5,7.07,7.77,1.76,3.26,2.79,7.32,3.11,12.19h-13.2c-.21-2.59-.88-4.74-2.02-6.44-1.14-1.71-2.59-3.08-4.35-4.11-1.76-1.03-3.7-1.79-5.82-2.25s-4.27-.7-6.44-.7c-1.97,0-3.96.16-5.98.47-2.02.31-3.86.86-5.51,1.63s-3,1.81-4.04,3.11-1.55,2.98-1.55,5.05c0,2.28.8,4.17,2.41,5.67s3.65,2.74,6.13,3.73,5.28,1.81,8.39,2.48c3.1.68,6.21,1.37,9.32,2.1,3.31.72,6.55,1.61,9.71,2.64,3.16,1.04,5.95,2.41,8.38,4.11,2.43,1.71,4.4,3.86,5.9,6.44,1.5,2.59,2.25,5.8,2.25,9.63,0,4.87-1.01,8.91-3.03,12.11-2.02,3.21-4.66,5.8-7.92,7.76-3.26,1.97-6.93,3.34-11.02,4.11s-8.15,1.16-12.19,1.16c-4.45,0-8.7-.47-12.73-1.4-4.04-.93-7.61-2.46-10.71-4.58-3.11-2.12-5.59-4.92-7.45-8.39-1.86-3.47-2.9-7.69-3.11-12.65h13.2c.1,2.9.78,5.36,2.02,7.38Z"/>
    </g>
  </g>
</svg>