<?xml version="1.0" encoding="UTF-8"?>
<svg id="reducciónes" xmlns="http://www.w3.org/2000/svg" xmlns:xlink="http://www.w3.org/1999/xlink" viewBox="0 0 377 218.44">
  <defs>
    <style>
      .cls-1 {
        fill: #fff;
      }

      .cls-2 {
        fill: #121212;
      }

      .cls-3 {
        fill: url(#Degradado_sin_nombre_972);
      }
    </style>
    <linearGradient id="Degradado_sin_nombre_972" data-name="Degradado sin nombre 972" x1="50.78" y1="15.72" x2="156.33" y2="198.54" gradientUnits="userSpaceOnUse">
      <stop offset="0" stop-color="#8400c8"/>
      <stop offset=".5" stop-color="#2010c0"/>
      <stop offset="1" stop-color="#0078f0"/>
      <stop offset="1" stop-color="#0271ed"/>
    </linearGradient>
  </defs>
  <g id="reduccion-color">
    <path id="Icono" class="cls-3" d="M162.57,23.25H44.55c-13.97,0-25.29,11.27-25.29,25.16v117.43c0,13.9,11.32,25.16,25.29,25.16h118.01c13.97,0,25.29-11.27,25.29-25.16V48.41c0-13.9-11.32-25.16-25.29-25.16ZM174.37,52.69c-1.74,5.93-7.4,9.67-13.35,9.25l-18,53.69c4.7,3.02,7.06,8.85,5.41,14.47-2.01,6.84-9.22,10.77-16.1,8.77-6.82-1.99-10.75-9.05-8.86-15.84l-43.45-25.84c-2.59,2.42-6.13,3.73-9.79,3.48l-18,53.69c4.7,3.02,7.06,8.85,5.41,14.47-2.01,6.84-9.22,10.77-16.1,8.77-6.88-2-10.82-9.17-8.81-16.02,1.74-5.93,7.39-9.67,13.34-9.25l18-53.7c-4.7-3.02-7.05-8.85-5.4-14.46,2.01-6.84,9.22-10.77,16.1-8.77,6.88,2,10.82,9.17,8.81,16.02-.03.11-.07.21-.1.32l43.23,25.71c2.62-2.65,6.32-4.1,10.15-3.84l18-53.7c-4.7-3.02-7.05-8.85-5.4-14.46,2.01-6.84,9.22-10.77,16.1-8.77,6.88,2,10.82,9.17,8.81,16.02Z"/>
    <path id="constelacion" class="cls-1" d="M174.37,52.69c-1.75,5.93-7.4,9.67-13.35,9.26l-18,53.7c4.7,3.02,7.06,8.85,5.41,14.46-2.01,6.85-9.21,10.77-16.09,8.77-6.82-1.99-10.75-9.05-8.85-15.84l-43.46-25.84c-2.59,2.42-6.13,3.73-9.79,3.48l-18,53.7c4.7,3.02,7.06,8.85,5.41,14.46-2.01,6.85-9.22,10.77-16.09,8.77-6.88-2-10.82-9.17-8.81-16.02,1.75-5.93,7.39-9.67,13.34-9.26l18-53.7c-4.7-3.02-7.06-8.85-5.4-14.46,2.01-6.85,9.21-10.77,16.09-8.77,6.87,2,10.82,9.17,8.81,16.02-.04.11-.07.21-.11.32l43.23,25.71c2.62-2.65,6.32-4.1,10.15-3.84l18-53.7c-4.69-3.02-7.05-8.85-5.4-14.46,2.01-6.85,9.22-10.77,16.1-8.77,6.87,2,10.82,9.17,8.81,16.02Z"/>
    <g id="Texto">
      <path class="cls-2" d="M267.99,52.18c5.28,0,10.09.47,14.44,1.4,4.35.93,8.07,2.46,11.18,4.58,3.11,2.12,5.51,4.95,7.22,8.46,1.71,3.52,2.56,7.87,2.56,13.04,0,5.59-1.27,10.25-3.8,13.97-2.54,3.73-6.29,6.78-11.26,9.16,6.83,1.97,11.93,5.41,15.3,10.33,3.36,4.92,5.05,10.85,5.05,17.78,0,5.59-1.09,10.43-3.26,14.52-2.17,4.09-5.1,7.43-8.77,10.02-3.68,2.59-7.87,4.5-12.58,5.74-4.71,1.24-9.55,1.86-14.52,1.86h-53.73V52.18h52.18ZM264.88,97.05c4.35,0,7.92-1.03,10.71-3.1,2.8-2.07,4.19-5.44,4.19-10.09,0-2.59-.47-4.71-1.4-6.37-.93-1.66-2.17-2.95-3.73-3.88-1.55-.93-3.34-1.58-5.36-1.94-2.02-.36-4.11-.54-6.29-.54h-22.83v25.93h24.69ZM266.28,144.1c2.38,0,4.66-.23,6.83-.7,2.17-.47,4.09-1.24,5.75-2.33,1.65-1.09,2.98-2.56,3.96-4.42.98-1.86,1.47-4.25,1.47-7.14,0-5.69-1.61-9.76-4.81-12.19-3.21-2.43-7.45-3.65-12.73-3.65h-26.55v30.44h26.09Z"/>
      <path class="cls-2" d="M323.42,63.2h0c0-6.09,4.94-11.02,11.02-11.02h0c6.09,0,11.02,4.94,11.02,11.02h0c0,6.09-4.94,11.02-11.02,11.02h0c-6.09,0-11.02-4.94-11.02-11.02ZM345.47,82.77v80.28h-22.05v-80.28h22.05Z"/>
    </g>
  </g>
</svg>